<svg width="100" height="100" viewBox="0 0 100 100" fill="none" xmlns="http://www.w3.org/2000/svg">
<rect width="100" height="100" fill="none"/>
<path fill-rule="evenodd" clip-rule="evenodd" d="M51.5956 81.9999C69.5448 81.947 84.0527 67.3535 83.9998 49.4043C83.947 31.4552 69.3535 16.9473 51.4043 17.0001C33.4552 17.053 18.9473 31.6465 19.0001 49.5957C19.053 67.5448 33.6465 82.0527 51.5956 81.9999ZM51.5837 77.9374C67.2892 77.8912 79.9836 65.1218 79.9374 49.4163C79.8911 33.7108 67.1218 21.0164 51.4163 21.0626C35.7108 21.1088 23.0164 33.8782 23.0626 49.5837C23.1088 65.2892 35.8782 77.9836 51.5837 77.9374Z" fill="#FF8C00"/>
<ellipse rx="20.3143" ry="6.23426" transform="matrix(0.743474 0.668765 -0.716761 0.697318 51.5716 49.0928)" fill="#FF0000"/>
<ellipse rx="20.2328" ry="6.2593" transform="matrix(0.701829 -0.712345 0.757363 0.652994 51.1713 49.5)" fill="#FF0000"/>
</svg>
